<?xml version="1.0" encoding="iso-8859-1"?>
<!-- Uploaded to: SVG Repo, www.svgrepo.com, Generator: SVG Repo Mixer Tools -->
<svg fill="#000000" height="800px" width="800px" version="1.1" id="Layer_1" xmlns="http://www.w3.org/2000/svg" xmlns:xlink="http://www.w3.org/1999/xlink" 
	 viewBox="0 0 512 512" xml:space="preserve">
<g>
	<g>
		<path d="M472.178,96.711h-119.29L334.422,50.55c-2.591-6.48-8.866-10.728-15.845-10.728H193.422
			c-6.979,0-13.254,4.248-15.846,10.728l-18.464,46.161H39.822C17.829,96.711,0,114.54,0,136.533v144.986
			c0,5.385,4.367,9.752,9.752,9.752h13.004v158.151c0,12.568,10.188,22.756,22.756,22.756h417.186
			c14.661,0,26.548-11.886,26.548-26.548V291.271h11.378c6.284,0,11.378-5.094,11.378-11.378v-143.36
			C512,114.54,494.171,96.711,472.178,96.711z M204.976,73.956h102.046l9.102,22.756H195.874L204.976,73.956z M455.111,432.356
			c0,3.141-2.548,5.689-5.689,5.689H62.578c-3.141,0-5.689-2.547-5.689-5.689V291.271h134.258V307.2
			c0,9.425,7.641,17.067,17.067,17.067h95.573c9.425,0,17.067-7.641,17.067-17.067v-15.929h134.258V432.356z M225.28,288.996
			c0-11.118,0-19.604,0-30.72h61.44c0,11.121,0,19.604,0,30.72H225.28z M477.867,257.138c-4.398,0-137.111,0-157.013,0v-15.929
			c0-9.425-7.641-17.067-17.067-17.067h-95.573c-9.425,0-17.067,7.641-17.067,17.067v15.929c-20.087,0-152.165,0-157.013,0V136.533
			c0-3.141,2.547-5.689,5.689-5.689h432.356c3.141,0,5.689,2.547,5.689,5.689V257.138z"/>
	</g>
</g>
</svg>